<?xml version="1.0" encoding="utf-8"?>
<!-- Generator: Adobe Illustrator 16.0.0, SVG Export Plug-In . SVG Version: 6.00 Build 0)  -->
<!DOCTYPE svg PUBLIC "-//W3C//DTD SVG 1.1//EN" "http://www.w3.org/Graphics/SVG/1.1/DTD/svg11.dtd">
<svg version="1.1" id="Calque_1" xmlns="http://www.w3.org/2000/svg" xmlns:xlink="http://www.w3.org/1999/xlink" x="0px" y="0px"
	 width="447.002px" height="414.841px" viewBox="0 0.563 447.002 414.841" enable-background="new 0 0.563 447.002 414.841"
	 xml:space="preserve">
<path fill="#82B703" d="M239.48,95.822c0-40.611,24.928-47.938,25.989-48.191l-2.021-7.735l-1.936-7.752
	c-1.557,0.386-38.013,10.146-38.013,63.679H239.48z"/>
<path fill="#82B703" d="M103.658,223.655v-47.938c0.008-6.89-4.401-13.007-10.939-15.18c-4.19-1.393-6.46-5.918-5.068-10.111
	c1.389-4.19,5.918-6.461,10.108-5.068c13.065,4.358,21.878,16.588,21.878,30.359v47.938h43.708
	c-16.841-20.302-26.579-45.554-27.729-71.906c0.004-12.804,3.457-25.373,9.995-36.386c-17.863-13.877-42.347-15.578-61.954-4.3
	c-19.611,11.278-30.452,33.293-27.44,55.713c0.289,2.278-0.414,4.568-1.931,6.288c-1.518,1.725-3.702,2.708-5.996,2.708
	c-0.238,0-0.597,0-0.925-0.055c-11.368,0.09-21.827,6.229-27.44,16.115s-5.532,22.015,0.218,31.822H103.658z"/>
<path fill="#82B703" d="M0,239.634c0.913,16.725,4.549,33.184,10.763,48.737l92.82-0.8l0.144,15.979l-85.646,0.726
	c34.354,65.293,113.465,111.128,205.419,111.128c120.089,0,218.387-78.136,223.501-175.771H0z M143.605,303.551h-23.969v-15.979
	h23.969V303.551z"/>
<path fill="#82B703" d="M186.452,223.655h90.109c20.941-18.203,33.526-44.185,34.825-71.906
	c-0.039-30.87-25.057-55.888-55.927-55.927c-3.437,0.218-6.822,0.916-10.068,2.067c-4.479,1.553-9.164,2.435-13.9,2.621
	c-4.74-0.187-9.421-1.068-13.903-2.621c-3.242-1.151-6.632-1.85-10.065-2.067c-30.874,0.039-55.888,25.057-55.927,55.927
	C152.941,179.463,165.53,205.432,186.452,223.655z"/>
<path fill="#82B703" d="M327.365,151.749c-1.115,26.36-10.856,51.62-27.726,71.906h107.859c3.405-8.317,6.18-16.881,8.302-25.615
	c0.538-2.618,0.913-5.263,1.127-7.923l-30.722-6.531c-4.314-0.916-7.072-5.161-6.155-9.479c0.92-4.314,5.161-7.073,9.479-6.156
	l26.703,5.685c-4.537-25.65-24.18-45.979-49.657-51.391c-14.677-3.19-30.008-1.049-43.245,6.039
	C325.98,135.824,327.342,143.756,327.365,151.749z M348.817,167.463c0.976-4.252,5.181-6.937,9.449-6.027
	c4.268,0.909,7.018,5.071,6.179,9.351c-0.92,4.319-5.165,7.077-9.479,6.156c-4.318-0.917-7.076-5.161-6.156-9.479H348.817z"/>
<path fill="#82B703" d="M396.872,101.76c12.164-3.262,23.208-9.765,31.958-18.815c15.352-17.021,17.388-42.464,17.364-55.064
	c-8.524,0.908-16.919,2.785-25.018,5.59c1.42,8.867,1.244,17.914-0.527,26.719C416.795,76.008,408.552,90.415,396.872,101.76z"/>
<path fill="#82B703" d="M404.99,56.881c1.736-8.859,1.514-17.992-0.655-26.758c-2.45-10.394-6.448-20.356-11.863-29.56
	c-8.68,6.203-16.385,13.674-22.85,22.162v0.055c-5.547,7.124-9.464,15.379-11.48,24.176c-4.795,22.619,6.246,45.647,12.519,56.376
	C380.733,96.028,400.188,79.484,404.99,56.881z"/>
<path fill="#82B703" d="M347.241,91.211c-6.031-15.109-7.692-31.607-4.794-47.617c1.946-8.813,5.466-17.204,10.389-24.769
	c-6.246-5.832-13.146-10.924-20.56-15.18c-5.138,11.54-13.622,35.684-6.55,57.358C330.037,72.832,337.474,83.271,347.241,91.211z"/>
<path fill="#82B703" d="M227.215,54.906l-15.979-15.979c-7.19-7.175-18.113-9.047-27.285-4.682l15.979,15.979
	C207.112,57.411,218.047,59.288,227.215,54.906z"/>
</svg>
